<?xml version="1.0" ?><!DOCTYPE svg  PUBLIC '-//W3C//DTD SVG 1.1//EN'  'http://www.w3.org/Graphics/SVG/1.1/DTD/svg11.dtd'><svg enable-background="new 0 0 24 24" height="24px" id="Layer_1" version="1.1" viewBox="0 0 24 24" width="24px" xml:space="preserve" xmlns="http://www.w3.org/2000/svg" xmlns:xlink="http://www.w3.org/1999/xlink"><g><circle cx="13.8" cy="8.8" r="1.2"/><path d="M17.9,2.1h-0.2c-0.1-0.9-0.8-1.6-1.8-1.6h-4.2c-0.9,0-1.7,0.7-1.8,1.6H9.7C8.1,2.1,6.8,3.4,6.8,5v8.1   c0,1.6,1.3,2.9,2.9,2.9h8.1c1.6,0,2.9-1.3,2.9-2.9V5C20.8,3.4,19.5,2.1,17.9,2.1z M13.8,12.4c-2,0-3.6-1.6-3.6-3.6   c0-2,1.6-3.6,3.6-3.6s3.6,1.6,3.6,3.6C17.4,10.8,15.8,12.4,13.8,12.4z"/><path d="M6.2,18.6c0.3,0,0.5-0.2,0.5-0.5c0-0.3-0.2-0.5-0.5-0.5H3.7c-0.3,0-0.5,0.2-0.5,0.5v2.5V23c0,0.3,0.2,0.5,0.5,0.5   s0.5-0.2,0.5-0.5v-2h2c0.3,0,0.5-0.2,0.5-0.5s-0.2-0.5-0.5-0.5h-2v-1.5H6.2z"/><path d="M10.9,17.6H8.4c-0.3,0-0.5,0.2-0.5,0.5v2.5V23c0,0.3,0.2,0.5,0.5,0.5h2.5c0.3,0,0.5-0.2,0.5-0.5v-2.5v-2.5   C11.4,17.8,11.1,17.6,10.9,17.6z M10.4,22.5H8.9v-2v-2h1.5v2V22.5z"/><path d="M15.6,17.6h-2.5c-0.3,0-0.5,0.2-0.5,0.5v2.5V23c0,0.3,0.2,0.5,0.5,0.5h2.5c0.3,0,0.5-0.2,0.5-0.5v-2.5v-2.5   C16.1,17.8,15.9,17.6,15.6,17.6z M15.1,22.5h-1.5v-2v-2h1.5v2V22.5z"/><path d="M20.3,17.6c-0.3,0-0.5,0.2-0.5,0.5v2h-2c-0.3,0-0.5,0.2-0.5,0.5V23c0,0.3,0.2,0.5,0.5,0.5h2.5c0.3,0,0.5-0.2,0.5-0.5v-2.5   v-2.5C20.8,17.8,20.6,17.6,20.3,17.6z M19.8,22.5h-1.5V21h1.5V22.5z"/><path d="M3.7,16.1c0.3,0,0.5-0.2,0.5-0.5v-2.5v-2.5c0-0.3-0.2-0.5-0.5-0.5s-0.5,0.2-0.5,0.5v2.5v2.5C3.2,15.9,3.4,16.1,3.7,16.1z"/></g></svg>